<mxfile host="65bd71144e">
    <diagram id="58SO3tEJWvLtK6XkHxIX" name="Page-1">
        <mxGraphModel dx="1315" dy="1118" grid="1" gridSize="10" guides="1" tooltips="1" connect="1" arrows="1" fold="1" page="1" pageScale="1" pageWidth="850" pageHeight="1100" math="0" shadow="0">
            <root>
                <mxCell id="0"/>
                <mxCell id="1" parent="0"/>
                <mxCell id="474" value="" style="rounded=0;whiteSpace=wrap;html=1;labelBackgroundColor=none;fontSize=16;fontColor=default;" vertex="1" parent="1">
                    <mxGeometry x="130" y="200" width="410" height="370" as="geometry"/>
                </mxCell>
                <mxCell id="468" style="edgeStyle=none;html=1;exitX=0.75;exitY=1;exitDx=0;exitDy=0;entryX=0.75;entryY=0;entryDx=0;entryDy=0;fontSize=16;fontColor=#FF0000;" edge="1" parent="1" source="461" target="464">
                    <mxGeometry relative="1" as="geometry"/>
                </mxCell>
                <mxCell id="461" value="&lt;b&gt;Special super powerful mode&lt;br&gt;&lt;font color=&quot;#ff0000&quot;&gt;Can modify page tables&lt;/font&gt;&lt;br&gt;Suppose to be secure&lt;/b&gt;" style="rounded=0;whiteSpace=wrap;html=1;" vertex="1" parent="1">
                    <mxGeometry x="305" y="300" width="190" height="60" as="geometry"/>
                </mxCell>
                <mxCell id="462" value="uPPL&lt;br&gt;(Micro Page Protection Layer)" style="text;strokeColor=none;fillColor=none;html=1;fontSize=16;fontStyle=1;verticalAlign=middle;align=center;" vertex="1" parent="1">
                    <mxGeometry x="350" y="240" width="100" height="40" as="geometry"/>
                </mxCell>
                <mxCell id="463" value="GL1" style="text;strokeColor=none;fillColor=none;html=1;fontSize=16;fontStyle=1;verticalAlign=middle;align=center;" vertex="1" parent="1">
                    <mxGeometry x="190" y="310" width="100" height="40" as="geometry"/>
                </mxCell>
                <mxCell id="467" style="edgeStyle=none;html=1;exitX=0.25;exitY=0;exitDx=0;exitDy=0;entryX=0.25;entryY=1;entryDx=0;entryDy=0;fontSize=16;fontColor=#FF0000;" edge="1" parent="1" source="464" target="461">
                    <mxGeometry relative="1" as="geometry"/>
                </mxCell>
                <mxCell id="464" value="&lt;b&gt;All of the GPU management&lt;br&gt;Cannot modify page tables&lt;/b&gt;" style="rounded=0;whiteSpace=wrap;html=1;" vertex="1" parent="1">
                    <mxGeometry x="305" y="410" width="190" height="60" as="geometry"/>
                </mxCell>
                <mxCell id="465" value="EL1" style="text;strokeColor=none;fillColor=none;html=1;fontSize=16;fontStyle=1;verticalAlign=middle;align=center;" vertex="1" parent="1">
                    <mxGeometry x="190" y="420" width="100" height="40" as="geometry"/>
                </mxCell>
                <UserObject label="Normal CPU&lt;br&gt;kernel mode&lt;br&gt;(Execution Level 1)" placeholders="1" name="Variable" id="469">
                    <mxCell style="text;html=1;strokeColor=none;fillColor=none;align=center;verticalAlign=middle;whiteSpace=wrap;overflow=hidden;labelBackgroundColor=none;fontSize=16;fontColor=default;" vertex="1" parent="1">
                        <mxGeometry x="150" y="460" width="190" height="60" as="geometry"/>
                    </mxCell>
                </UserObject>
                <UserObject label="Apple secret CPU mode&lt;br&gt;(Guarded Level 1)" placeholders="1" name="Variable" id="470">
                    <mxCell style="text;html=1;strokeColor=none;fillColor=none;align=center;verticalAlign=middle;whiteSpace=wrap;overflow=hidden;labelBackgroundColor=none;fontSize=16;fontColor=default;" vertex="1" parent="1">
                        <mxGeometry x="145" y="350" width="190" height="60" as="geometry"/>
                    </mxCell>
                </UserObject>
                <UserObject label="GL1 Call" placeholders="1" name="Variable" id="471">
                    <mxCell style="text;html=1;strokeColor=none;fillColor=none;align=center;verticalAlign=middle;whiteSpace=wrap;overflow=hidden;labelBackgroundColor=none;fontSize=16;fontColor=default;" vertex="1" parent="1">
                        <mxGeometry x="350" y="380" width="80" height="20" as="geometry"/>
                    </mxCell>
                </UserObject>
                <UserObject label="Return" placeholders="1" name="Variable" id="472">
                    <mxCell style="text;html=1;strokeColor=none;fillColor=none;align=center;verticalAlign=middle;whiteSpace=wrap;overflow=hidden;labelBackgroundColor=none;fontSize=16;fontColor=default;" vertex="1" parent="1">
                        <mxGeometry x="450" y="380" width="80" height="20" as="geometry"/>
                    </mxCell>
                </UserObject>
                <mxCell id="473" value="GPU Firmware" style="text;strokeColor=none;fillColor=none;html=1;fontSize=24;fontStyle=1;verticalAlign=middle;align=center;labelBackgroundColor=none;fontColor=default;" vertex="1" parent="1">
                    <mxGeometry x="285" y="580" width="100" height="40" as="geometry"/>
                </mxCell>
            </root>
        </mxGraphModel>
    </diagram>
</mxfile>